<?xml version="1.0" encoding="UTF-8" standalone="no"?>
<svg width="18px" height="18px" viewBox="0 0 18 18" version="1.1" xmlns="http://www.w3.org/2000/svg" xmlns:xlink="http://www.w3.org/1999/xlink">
    <defs></defs>
    <g id="mobile" stroke="none" stroke-width="1" fill="none" fill-rule="evenodd">
        <g id="github-logo" fill="#000000">
            <path d="M9.00167821,0 C6.44650157,0.0586049689 4.32210331,0.934736112 2.62841971,2.62841971 C0.934736112,4.32210331 0.0586049689,6.44650157 0,9.00167821 C0.0351629813,11.0176891 0.615343471,12.7875327 1.74055887,14.3112618 C2.86577428,15.834991 4.33673693,16.9133063 6.15349097,17.54624 C6.37618985,17.5814029 6.53442089,17.5491707 6.62818884,17.4495422 C6.72195679,17.3499138 6.76884006,17.2356358 6.76884006,17.1067049 L6.75125866,15.4364716 C5.64948525,15.6005655 4.88763208,15.536101 4.4656763,15.2430762 C4.04372053,14.9500514 3.79758335,14.6570309 3.72725739,14.3640061 C3.66865242,14.2116331 3.55144424,13.994798 3.37562933,13.7134942 C3.19981442,13.4321903 3.01228134,13.227076 2.81302444,13.0981451 C2.62548854,13.0043771 2.48776893,12.8871689 2.39986148,12.746517 C2.31195402,12.6058651 2.44381323,12.5296798 2.79544304,12.5179588 C3.14707285,12.5296798 3.44302351,12.6468879 3.68330388,12.8695868 C3.92358425,13.0922857 4.0847455,13.2798188 4.16679245,13.4321917 C4.60046922,14.0768464 5.07516235,14.4020991 5.59088608,14.4079596 C6.1066098,14.4138201 6.50511762,14.3405649 6.78642147,14.188192 C6.83330544,13.8951672 6.90656055,13.64903 7.006189,13.4497731 C7.10581745,13.2505162 7.22595583,13.0922852 7.36660776,12.9750752 C6.31171832,12.9047493 5.37405288,12.5677758 4.55358332,11.9641446 C3.73311375,11.3605134 3.29944349,10.2148034 3.25255951,8.52698034 C3.2642805,8.0346986 3.34925644,7.58930752 3.50748985,7.19079373 C3.66572327,6.79227994 3.89134901,6.43479499 4.18437386,6.11832816 C4.11404789,6.00111822 4.0554438,5.73153941 4.00855983,5.30958363 C3.96167585,4.88762786 4.04958199,4.36019105 4.27228087,3.72725739 C4.27228087,3.6920944 4.47153478,3.70088502 4.87004857,3.75362949 C5.26856235,3.80637396 5.89562611,4.10818502 6.75125866,4.65907173 C7.47796028,4.45981484 8.22809262,4.36018789 9.00167821,4.36018789 C9.7752638,4.36018789 10.5253962,4.45981484 11.2520978,4.65907173 C12.1077303,4.10818502 12.7347941,3.80637396 13.1333079,3.75362949 C13.5318217,3.70088502 13.7310756,3.6920944 13.7310756,3.72725739 C13.9537744,4.36019105 14.0416806,4.88762786 13.9947966,5.30958363 C13.9479126,5.73153941 13.8893085,6.00111822 13.8189826,6.11832816 C14.1120074,6.43479499 14.3376332,6.79227994 14.4958666,7.19079373 C14.6541,7.58930752 14.7390759,8.0346986 14.7507969,8.52698034 C14.7039129,10.2148034 14.2673125,11.3605134 13.4409824,11.9641446 C12.6146524,12.5677758 11.6799171,12.9047493 10.6367487,12.9750752 C10.8008426,13.1157272 10.9414924,13.3237717 11.0587023,13.599215 C11.1759123,13.8746584 11.2403768,14.2233527 11.2520978,14.6453085 L11.2345164,17.1067049 C11.2345164,17.2356358 11.2813996,17.3499138 11.3751676,17.4495422 C11.4689355,17.5491707 11.6271666,17.5814029 11.8498655,17.54624 C13.6666195,16.9133063 15.1375822,15.834991 16.2627976,14.3112618 C17.388013,12.7875327 17.9681934,11.0176891 18.0033564,9.00167821 C17.9447515,6.44650157 17.0686203,4.32210331 15.3749367,2.62841971 C13.6812531,0.934736112 11.5568549,0.0586049689 9.00167821,0 L9.00167821,0 Z"></path>
        </g>
    </g>
</svg>