<?xml version="1.0" encoding="UTF-8" standalone="no"?>
<svg width="18px" height="9px" viewBox="0 0 18 9" version="1.1" xmlns="http://www.w3.org/2000/svg" xmlns:xlink="http://www.w3.org/1999/xlink">
    <defs></defs>
    <g id="mobile" stroke="none" stroke-width="1" fill="none" fill-rule="evenodd">
        <g id="link-icon" fill="#000000">
            <path d="M13.5,0 L11.0742188,0 C11.5078147,0.292970215 11.8974592,0.650388516 12.2431641,1.07226562 C12.5888689,1.49414273 12.8261712,1.88671693 12.9550781,2.25 L13.4824219,2.25 C14.0800811,2.27343762 14.5986306,2.50781027 15.0380859,2.953125 C15.4775413,3.39843973 15.7089843,3.91405957 15.7324219,4.5 C15.7089843,5.08594043 15.4716819,5.60156027 15.0205078,6.046875 C14.5693337,6.49218973 14.0566435,6.72656238 13.4824219,6.75 L10.1074219,6.75 C9.53320025,6.72656238 9.02051007,6.49218973 8.56933594,6.046875 C8.11816181,5.60156027 7.88085949,5.08594043 7.85742188,4.5 C7.86914068,4.0898417 7.97460838,3.71484545 8.17382812,3.375 L5.765625,3.375 C5.67187453,3.73828307 5.625,4.11327932 5.625,4.5 C5.67187523,5.67188086 6.13769089,6.70312055 7.02246094,7.59375 C7.90723099,8.48437945 8.93554102,8.95312477 10.1074219,9 L13.5,9 C14.6718809,8.95312477 15.7031205,8.48437945 16.59375,7.59375 C17.4843795,6.70312055 17.9531248,5.67188086 18,4.5 C17.9531248,3.32811914 17.4843795,2.29687945 16.59375,1.40625 C15.7031205,0.515620547 14.6718809,0.0468752344 13.5,0 L13.5,0 Z M5.04492188,6.75 L4.51757812,6.75 C3.91991889,6.72656238 3.40136938,6.49218973 2.96191406,6.046875 C2.52245874,5.60156027 2.29101574,5.08594043 2.26757812,4.5 C2.29101574,3.91405957 2.52831806,3.39843973 2.97949219,2.953125 C3.43066632,2.50781027 3.9433565,2.27343762 4.51757812,2.25 L7.89257812,2.25 C8.46679975,2.27343762 8.97948993,2.50781027 9.43066406,2.953125 C9.88183819,3.39843973 10.1191405,3.91405957 10.1425781,4.5 C10.1308593,4.9101583 10.0253916,5.28515455 9.82617188,5.625 L12.234375,5.625 C12.3281255,5.26171693 12.375,4.88672068 12.375,4.5 C12.3281248,3.32811914 11.8623091,2.29687945 10.9775391,1.40625 C10.092769,0.515620547 9.06445898,0.0468752344 7.89257812,0 L4.5,0 C3.32811914,0.0468752344 2.29687945,0.515620547 1.40625,1.40625 C0.515620547,2.29687945 0.0468752344,3.32811914 0,4.5 C0.0468752344,5.67188086 0.515620547,6.70312055 1.40625,7.59375 C2.29687945,8.48437945 3.32811914,8.95312477 4.5,9 L6.92578125,9 C6.49218533,8.70702979 6.10254079,8.34961148 5.75683594,7.92773438 C5.41113108,7.50585727 5.17382877,7.11328307 5.04492188,6.75 L5.04492188,6.75 Z"></path>
        </g>
    </g>
</svg>